<svg version="1.2" xmlns="http://www.w3.org/2000/svg" viewBox="0 0 89 76" width="89" height="76">
	<title>Products</title>
	<style>
		.s0 { fill: #ffffff } 
	</style>
	<g id="Products">
		<path id="-e-icon-obklady" fill-rule="evenodd" class="s0" d="m88.4 25.9l-31.5-25.4c-0.3-0.2-0.7-0.3-1-0.2l-48.8 16.5c-0.3 0.1-0.6 0.4-0.7 0.8-0.1 0.3 0.1 0.7 0.4 1l11 9.1-14.4 4.9c-0.4 0.1-0.6 0.4-0.7 0.8-0.1 0.4 0.1 0.7 0.3 1l11.3 9.3-13.1 4.6c-0.3 0.1-0.6 0.5-0.7 0.8 0 0.4 0.1 0.8 0.4 1l30.8 25.6q0.3 0.3 0.6 0.3 0.2 0 0.3-0.1l49.6-16.7c0.3-0.1 0.6-0.4 0.7-0.8 0-0.3-0.1-0.7-0.4-1l-11.5-9.4 13.3-4.5c0.4-0.1 0.7-0.4 0.7-0.8 0.1-0.4-0.1-0.7-0.3-1l-11.3-9.1 14.7-4.9c0.3-0.1 0.6-0.4 0.7-0.8 0-0.4-0.1-0.8-0.4-1zm-8.7 32l-47.2 15.9-28.9-24.1 12.6-4.4 17.6 14.7q0.3 0.3 0.7 0.3 0.1 0 0.3-0.1l33.9-11.4zm2.1-15.7l-47.1 15.9-28.9-24.1 13.7-4.6q0 0 0.1-0.1l17.9 14.9q0.3 0.2 0.7 0.2 0.1 0 0.3 0l32.5-11zm-43.4 0.1l-28.9-24.1 46.5-15.6 29.5 23.8z"/>
	</g>
</svg>