<svg version="1.2" xmlns="http://www.w3.org/2000/svg" viewBox="0 0 97 83" width="97" height="83">
	<title>Products</title>
	<style>
		.s0 { fill: #ffffff } 
	</style>
	<g id="Products">
		<path id="-e-icon-izolace" fill-rule="evenodd" class="s0" d="m48.7 32.5c0 2.7-2.1 4.8-4.8 4.8h-12.7v40.7c0 2.6-2.1 4.7-4.7 4.7-2.6 0-4.8-2.1-4.8-4.7v-25.1l-1.6 0.1v25c0 2.6-2.2 4.7-4.8 4.7-2.7 0-4.8-2.1-4.8-4.7v-25c0 0-10.2-5.3-9.8-15 0.4-9.7 7-18.2 18.3-18.3q0.1 0 0.2 0c11.2 0 16.6 6.4 16.6 6.4l1.9 1.6h6.2c2.7 0 4.8 2.2 4.8 4.8zm-2.4 0c0-1.3-1.1-2.3-2.4-2.3h-7.1l-0.7-0.6-1.9-1.7-0.1-0.1-0.1-0.2c-0.1 0-1.3-1.4-3.7-2.7-3.3-1.8-7-2.7-11.1-2.7h-0.2c-4.6 0-8.6 1.6-11.5 4.7-2.6 2.9-4.2 6.9-4.4 11.2-0.3 8 8.4 12.7 8.5 12.7l1.3 0.7v1.5 25c0 1.3 1.1 2.3 2.4 2.3 1.3 0 2.3-1 2.3-2.3v-27.4l2.4-0.1h1.7 2.5v27.5c0 1.3 1 2.3 2.3 2.3 1.3 0 2.3-1 2.3-2.3v-43.1h15.1c1.3 0 2.4-1.1 2.4-2.4zm-34.8-24.1c0-4.6 3.8-8.4 8.4-8.4 3.2 0 6 1.8 7.5 4.4h4.9c0.6 0 1.2 0.6 1.2 1.2 0 0.7-0.6 1.2-1.2 1.2h-4.1q0.2 0.8 0.2 1.6c0 4.7-3.8 8.5-8.5 8.5-4.6 0-8.4-3.8-8.4-8.5zm4-4h8.9c-1.1-1.2-2.7-2-4.5-2-1.7 0-3.3 0.8-4.4 2zm-1.6 4c0 3.4 2.7 6.1 6 6.1 3.4 0 6.1-2.7 6.1-6.1q0-0.8-0.3-1.6h-11.6q-0.2 0.8-0.2 1.6zm45.1 24.2c0 0.7-0.6 1.2-1.2 1.2h-3.7c-0.6 0-1.2-0.5-1.2-1.2 0-0.7 0.6-1.2 1.2-1.2h3.7c0.6 0 1.2 0.5 1.2 1.2zm26.9 0c0 0.7-0.5 1.2-1.2 1.2h-6.7c-0.7 0-1.2-0.5-1.2-1.2 0-0.7 0.5-1.2 1.2-1.2h6.7c0.7 0 1.2 0.5 1.2 1.2zm-13.4 0c0 0.7-0.6 1.2-1.2 1.2h-6.8c-0.7 0-1.2-0.5-1.2-1.2 0-0.7 0.5-1.2 1.2-1.2h6.8c0.6 0 1.2 0.5 1.2 1.2zm23.8 0c0 0.7-0.5 1.2-1.2 1.2h-3.6c-0.7 0-1.2-0.5-1.2-1.2 0-0.7 0.5-1.2 1.2-1.2h3.6c0.7 0 1.2 0.5 1.2 1.2zm-43.2-3.7c-0.3-0.6-0.1-1.3 0.5-1.6l3.3-1.5c0.6-0.3 1.3-0.1 1.6 0.6 0.3 0.6 0.1 1.3-0.6 1.6l-3.2 1.5q-0.3 0.1-0.5 0.1c-0.5 0-0.9-0.3-1.1-0.7zm21.6-10.1c-0.3-0.6-0.1-1.3 0.5-1.6l6.2-2.8c0.6-0.3 1.3 0 1.6 0.6 0.2 0.6 0 1.3-0.6 1.6l-6.1 2.8q-0.3 0.1-0.5 0.1c-0.5 0-0.9-0.2-1.1-0.7zm-12.3 5.7c-0.2-0.6 0-1.3 0.6-1.6l6.1-2.8c0.6-0.3 1.4-0.1 1.6 0.6 0.3 0.6 0.1 1.3-0.5 1.6l-6.1 2.8q-0.3 0.1-0.6 0.1c-0.4 0-0.8-0.2-1.1-0.7zm24.5-11.4c-0.3-0.6 0-1.3 0.6-1.6l3.2-1.5c0.6-0.3 1.4 0 1.6 0.6 0.3 0.6 0.1 1.3-0.5 1.6l-3.3 1.5q-0.3 0.1-0.5 0.1c-0.5 0-0.9-0.2-1.1-0.7zm-28.4 25.7c-0.2 0.5-0.6 0.7-1.1 0.7q-0.2 0-0.5-0.1l-3.3-1.5c-0.6-0.3-0.8-1-0.5-1.6 0.2-0.6 1-0.9 1.6-0.6l3.2 1.5c0.7 0.3 0.9 1 0.6 1.6zm12.3 5.7c-0.3 0.4-0.7 0.7-1.1 0.7q-0.3 0-0.6-0.1l-6.1-2.8c-0.6-0.3-0.8-1-0.5-1.7 0.2-0.6 1-0.8 1.6-0.5l6.1 2.8c0.6 0.3 0.8 1 0.6 1.6zm12.2 5.7c-0.2 0.4-0.7 0.7-1.1 0.7q-0.3 0-0.5-0.1l-6.1-2.9c-0.6-0.2-0.9-1-0.6-1.6 0.3-0.6 1-0.8 1.6-0.6l6.1 2.9c0.6 0.3 0.9 1 0.6 1.6zm9.4 4.4c-0.2 0.4-0.7 0.7-1.1 0.7q-0.3 0-0.5-0.2l-3.3-1.5c-0.6-0.3-0.9-1-0.6-1.6 0.3-0.6 1-0.9 1.6-0.6l3.3 1.5c0.6 0.3 0.9 1 0.6 1.7z"/>
	</g>
</svg>