<svg version="1.2" xmlns="http://www.w3.org/2000/svg" viewBox="0 0 76 75" width="76" height="75">
	<title>Products</title>
	<style>
		.s0 { fill: #ffffff } 
	</style>
	<g id="Products">
		<path id="-e-icon-omitka" fill-rule="evenodd" class="s0" d="m74.1 65.6c1.1 1.2 1.6 2.7 1.5 4.2-0.1 1.5-0.8 2.9-2 3.9-1.1 0.9-2.3 1.3-3.6 1.3q-0.3 0-0.7 0c-1.5-0.2-2.9-1-3.8-2.3l-9.1-12.2c-1.3-1.7-1.2-4 0.1-5.7l-3.9-4.6-8.8 7.3c-0.9 0.7-1.9 1-2.9 1q-0.9 0-1.7-0.3c-1.6-0.6-2.7-1.9-3-3.6l-4.3-25c-0.2-1.7 0.4-3.3 1.7-4.4 1.3-1.1 3-1.4 4.6-0.8l23.8 9c1.6 0.6 2.7 2 2.9 3.7 0.3 1.6-0.3 3.2-1.6 4.3l-8.9 7.3 3.9 4.6c1.8-0.9 4.1-0.5 5.6 1.1zm-23-17.3l-2.9-3.6c-0.4-0.5-0.4-1.2 0.1-1.6 0.5-0.4 1.3-0.3 1.7 0.2l2.9 3.6 8.9-7.3c0.6-0.6 0.9-1.4 0.8-2.2-0.1-0.8-0.7-1.5-1.5-1.8l-23.8-9c-0.8-0.3-1.6-0.2-2.3 0.4-0.6 0.5-0.9 1.3-0.8 2.1l4.3 25.1c0.2 0.9 0.7 1.5 1.5 1.8 0.8 0.3 1.6 0.2 2.3-0.4zm22.1 21.3c0-0.9-0.3-1.8-0.9-2.4l-10.2-11.3c-0.5-0.5-1.2-0.8-1.8-0.8-0.6 0-1.2 0.2-1.6 0.6-1.1 0.8-1.3 2.3-0.5 3.4l9.1 12.2c0.5 0.7 1.3 1.2 2.2 1.3 0.9 0.1 1.8-0.1 2.5-0.7 0.7-0.6 1.1-1.4 1.2-2.3zm2.3-54.1v14c0 0.6-0.5 1.2-1.1 1.2h-7c-0.7 0-1.2-0.6-1.2-1.2 0-0.6 0.5-1.2 1.2-1.2h5.8v-11.6h-22.2v3.5c0 0.6-0.5 1.1-1.1 1.1-0.7 0-1.2-0.5-1.2-1.1v-3.5h-21v12.8c0 0.6-0.5 1.2-1.1 1.2h-11.7v11.6h15.2c0.6 0 1.1 0.5 1.1 1.2 0 0.6-0.5 1.2-1.1 1.2h-2.4v11.6h4.7c0.6 0 1.2 0.5 1.2 1.2 0 0.6-0.6 1.1-1.2 1.1h-17.5v10.5c0 0.7-0.5 1.2-1.2 1.2-0.6 0-1.1-0.5-1.1-1.2v-10.5h-5.9c-0.6 0-1.1-0.5-1.1-1.1 0-0.7 0.5-1.2 1.1-1.2h18.7v-11.6h-18.7c-0.6 0-1.1-0.6-1.1-1.2 0-0.7 0.5-1.2 1.1-1.2h5.9v-11.6h-5.9c-0.6 0-1.1-0.6-1.1-1.2 0-0.6 0.5-1.2 1.1-1.2h18.7v-11.6h-18.7c-0.6 0-1.1-0.5-1.1-1.2 0-0.6 0.5-1.1 1.1-1.1h5.9v-12.9c0-0.6 0.5-1.1 1.1-1.1h49c0.6 0 1.2 0.5 1.2 1.1v12.9h10.5c0.6 0 1.1 0.5 1.1 1.1zm-38.4-1.1v-11.7h-22.2v11.7zm2.3 0h22.2v-11.7h-22.2zm22.2 59.4c0 0.7-0.5 1.2-1.2 1.2h-58.3c-0.6 0-1.1-0.5-1.1-1.2v-58.2c0-0.7 0.5-1.2 1.1-1.2 0.7 0 1.2 0.5 1.2 1.2v57.1h57.1c0.7 0 1.2 0.5 1.2 1.1z"/>
	</g>
</svg>