<svg version="1.2" xmlns="http://www.w3.org/2000/svg" viewBox="0 0 66 73" width="66" height="73">
	<title>Products</title>
	<style>
		.s0 { fill: #ffffff } 
	</style>
	<g id="Products">
		<path id="-e-icon-pbz" fill-rule="evenodd" class="s0" d="m9.9 17.9c0-0.6 0.5-1.1 1.1-1.1h10.1c0.6 0 1.1 0.5 1.1 1.1 0 0.6-0.5 1.1-1.1 1.1h-10.1c-0.6 0-1.1-0.5-1.1-1.1zm41.3 43.2l1.1 0.3v9.6c0 0.7-0.5 1.2-1.1 1.2h-49.1c-0.6 0-1.1-0.5-1.1-1.2v-69.3c0-0.6 0.5-1.1 1.1-1.1h33q0.2 0 0.4 0.1 0.2 0.1 0.3 0.2l16.2 16.2q0.3 0.3 0.3 0.8v4.2c-0.7-0.3-1.5-0.3-2.2 0v-3.1h-15c-0.7 0-1.2-0.5-1.2-1.1v-15.1h-30.7v67.1h46.9v-8.5zm-15-44.3h12.3l-12.3-12.4zm2.6 11.8h-27.8c-0.6 0-1.1-0.5-1.1-1.1 0-0.6 0.5-1.1 1.1-1.1h30.1l-0.7 1.5zm-4.4 10h-23.4c-0.6 0-1.1-0.5-1.1-1.1 0-0.6 0.5-1.1 1.1-1.1h24.2l-0.2 0.3c-0.4 0.6-0.6 1.2-0.6 1.9zm31 0.7l-1.9 2.7 0.3 3.2c0.1 0.5-0.2 1-0.6 1.2l-3 1.3-0.3 0.6q0.1 0.1 0.1 0.3l1.2 11.2c0 0.3-0.1 0.7-0.4 0.9-0.2 0.2-0.5 0.3-0.7 0.3q-0.2 0-0.3 0l-8.7-2.2-8.6 2.2c-0.4 0-0.7 0-1-0.3-0.3-0.2-0.4-0.6-0.4-0.9l1.1-11.2q0.1-0.2 0.1-0.3l-0.2-0.6-3-1.3c-0.4-0.2-0.7-0.7-0.7-1.2l0.3-3.2-1.8-2.7c-0.3-0.4-0.3-0.9 0-1.3l1.8-2.7-0.3-3.3c0-0.5 0.3-0.9 0.7-1.1l3-1.4 1.3-3c0.2-0.4 0.7-0.6 1.1-0.6l3.3 0.3 2.7-1.9c0.4-0.3 0.9-0.3 1.3 0l2.6 1.9 3.3-0.3c0.5 0 0.9 0.2 1.1 0.6l1.4 3 3 1.4c0.4 0.2 0.7 0.6 0.6 1.1l-0.3 3.3 1.9 2.7c0.3 0.4 0.3 0.9 0 1.3zm-6.6 19.1l-0.7-7.1c-0.1 0-0.3 0.1-0.4 0.1l-3.3-0.3-2.6 1.9q-0.3 0.2-0.7 0.2-0.3 0-0.6-0.2l-2.7-1.9-3.2 0.3c-0.2 0-0.3-0.1-0.4-0.1l-0.7 7.1 7.4-1.9q0.2 0 0.5 0zm2.5-16.6q-0.1-0.4 0.2-0.7l1.7-2.4-1.7-2.4c-0.2-0.2-0.2-0.5-0.2-0.7l0.2-3-2.6-1.2q-0.4-0.1-0.5-0.5l-1.3-2.7-2.9 0.3q-0.4 0-0.7-0.2l-2.4-1.7-2.3 1.7q-0.4 0.2-0.8 0.2l-2.9-0.3-1.2 2.7q-0.2 0.4-0.5 0.5l-2.7 1.2 0.3 3c0 0.2 0 0.5-0.2 0.7l-1.7 2.4 1.7 2.4q0.2 0.3 0.2 0.7l-0.3 2.9 2.7 1.2q0.3 0.2 0.5 0.6l1.2 2.6 2.9-0.3q0.1 0 0.1 0 0.4 0 0.7 0.2l2.3 1.7 2.4-1.7q0.3-0.2 0.8-0.2l2.8 0.3 1.3-2.6c0.1-0.3 0.3-0.5 0.5-0.6l2.6-1.2zm-2.3-3.1c0 4.3-3.5 7.8-7.8 7.8-4.3 0-7.8-3.5-7.8-7.8 0-4.3 3.5-7.9 7.8-7.9 4.3 0 7.8 3.6 7.8 7.9zm-2.2 0c0-3.1-2.5-5.6-5.6-5.6-3.1 0-5.6 2.5-5.6 5.6 0 3.1 2.5 5.6 5.6 5.6 3.1 0 5.6-2.5 5.6-5.6z"/>
	</g>
</svg>