<svg version="1.2" xmlns="http://www.w3.org/2000/svg" viewBox="0 0 77 77" width="77" height="77">
	<title>Products</title>
	<style>
		.s0 { fill: #ffffff } 
	</style>
	<g id="Products">
		<path id="-e-icon-dvirka" fill-rule="evenodd" class="s0" d="m75.4 76.2h-73.5c-0.5 0-1-0.5-1-1.1v-73.3c0-0.6 0.5-1.1 1-1.1h73.5c0.6 0 1.1 0.5 1.1 1.1v73.3c0 0.6-0.5 1.1-1.1 1.1zm-72.4-2.1h71.3v-71.3h-71.3zm61.6-3.1h-51.8c-3.6 0-6.6-3-6.6-6.6v-51.7c0-3.6 3-6.6 6.6-6.6h51.8c3.6 0 6.5 3 6.5 6.6v51.7c0 3.6-2.9 6.6-6.5 6.6zm-51.8-62.7c-2.5 0-4.4 1.9-4.4 4.4v51.7c0 2.4 1.9 4.4 4.4 4.4h51.8c2.4 0 4.4-2 4.4-4.4v-51.7c0-2.5-2-4.4-4.4-4.4zm48.7 26c-2.3 0-4.2 1.9-4.2 4.2 0 2.4 1.9 4.3 4.2 4.3 2.4 0 4.3-1.9 4.3-4.3 0-2.3-1.9-4.2-4.3-4.2zm0-2.1c3.5 0 6.4 2.8 6.4 6.3 0 3.5-2.9 6.4-6.4 6.4-3.5 0-6.3-2.9-6.3-6.4 0-3.5 2.8-6.3 6.3-6.3zm0 9.4c-0.6 0-1-0.5-1-1.1v-3.9c0-0.6 0.4-1.1 1-1.1 0.6 0 1.1 0.5 1.1 1.1v3.9c0 0.6-0.5 1.1-1.1 1.1z"/>
	</g>
</svg>