<svg version="1.2" xmlns="http://www.w3.org/2000/svg" viewBox="0 0 49 86" width="49" height="86">
	<title>Products</title>
	<style>
		.s0 { fill: #ffffff } 
	</style>
	<g id="Products">
		<path id="-e-icon-pristroj" fill-rule="evenodd" class="s0" d="m48.3 2v10.1c0 1.1-0.9 2-2 2q-0.1 0-0.2 0l-12.5-2.4c-0.4 0-0.8-0.2-1.2-0.5h-2v5c7 2.2 11.7 8.2 11.7 15.7v47.7c0 3.7-2.8 6.3-6.8 6.3h-21.5c-4 0-6.8-2.6-6.8-6.3v-47.7c0-7.5 4.7-13.5 11.7-15.7v-5h-3l-11.2 6.7q-0.3 0.1-0.6 0.1-0.2 0-0.4-0.1l-2.8-1.2c-0.4-0.2-0.6-0.5-0.7-0.9 0-0.4 0.2-0.8 0.5-1l14.3-10.3q0.3-0.2 0.6-0.2h16.3c0.1-1 0.9-1.8 1.9-1.9l12.5-2.4q0.1 0 0.2 0c1.1 0 2 0.9 2 2zm-16.6 7.1v-2.7h-15.9l-12.6 9.1 0.7 0.2 11-6.5q0.2-0.1 0.5-0.1zm-7.2 8.4c-8.8 0-15.4 6.2-15.4 14.4v47.7c0 2.5 1.8 4.2 4.6 4.2h21.6c2.8 0 4.6-1.7 4.6-4.2v-47.7c0-8.2-6.6-14.4-15.4-14.4zm3.8-6.3h-7.5v4.5q1.8-0.4 3.7-0.4 2 0 3.8 0.4zm17.8-9.1l-12.2 2.4q0 0 0 0v5q0 0 0 0l12.2 2.4zm-13.1 74.2v-43.4c0-0.5 0.5-1 1.1-1 0.6 0 1.1 0.5 1.1 1v43.4c0 0.6-0.5 1.1-1.1 1.1-0.6 0-1.1-0.5-1.1-1.1z"/>
	</g>
</svg>