<svg version="1.2" xmlns="http://www.w3.org/2000/svg" viewBox="0 0 16 23" width="16" height="23">
	<title>-e-icon-pin</title>
	<style>
		.s0 { fill: #eb662b } 
	</style>
	<path id="-e-icon-pin" fill-rule="evenodd" class="s0" d="m16 8.9c0 4.2-6.5 12-7.2 12.9l-0.8 0.9-0.8-0.9c-0.7-0.9-7.2-8.7-7.2-12.9 0-4.5 3.6-8.1 8-8.1 4.4 0 8 3.6 8 8.1zm-2 0c0-3.4-2.7-6.1-6-6.1-3.3 0-6 2.7-6 6.1 0 2.6 3.8 7.9 6 10.7 2.2-2.8 6-8.1 6-10.7zm-2 0c0 2.2-1.8 4.1-4 4.1-2.2 0-4-1.9-4-4.1 0-2.3 1.8-4.1 4-4.1 2.2 0 4 1.8 4 4.1zm-2 0c0-1.1-0.9-2.1-2-2.1-1.1 0-2 1-2 2.1 0 1.1 0.9 2 2 2 1.1 0 2-0.9 2-2z"/>
</svg>