<svg version="1.2" xmlns="http://www.w3.org/2000/svg" viewBox="0 0 79 76" width="79" height="76">
	<title>Products</title>
	<style>
		.s0 { fill: #ffffff } 
	</style>
	<g id="Products">
		<path id="-e-icon-sachty" fill-rule="evenodd" class="s0" d="m78.4 46.1c-0.5-0.4-1.2-0.4-1.6 0l-9.2 9.1v-35.6l10.1-10.1c0.4-0.5 0.4-1.2 0-1.6-0.4-0.4-1.2-0.4-1.6 0l-8.5 8.5v-15.3c0-0.6-0.5-1.1-1.1-1.1-0.6 0-1.1 0.5-1.1 1.1v17.5l-4.1 4v-21.5c0-0.6-0.5-1.1-1.1-1.1-0.6 0-1.1 0.5-1.1 1.1v23.8l-9.6 9.5h-44.7l25.7-25.6c0.4-0.4 0.4-1.1 0-1.6-0.5-0.4-1.2-0.4-1.6 0l-10.4 10.4v-16.5c0-0.6-0.5-1.1-1.2-1.1-0.6 0-1.1 0.5-1.1 1.1v18.8l-4 4v-22.8c0-0.6-0.5-1.1-1.1-1.1-0.6 0-1.1 0.5-1.1 1.1v24.7q0 0.2 0 0.3l-8.7 8.7q-0.1 0.1-0.2 0.3-0.1 0.2-0.1 0.4v38.9c0 0.6 0.5 1.1 1.1 1.1h47.9q0.2 0 0.4-0.1 0.2-0.1 0.4-0.2l16.5-16.5q0 0 0 0l11.1-11c0.4-0.5 0.4-1.2 0-1.6zm-13-24.3v35.7l-4.1 4v-35.7zm-6.2 41.9l-8 8v-35.7l8-7.9v35.5q0 0.1 0 0.1zm-55.9-27h45.6v36.6h-45.6z"/>
	</g>
</svg>