<svg version="1.2" xmlns="http://www.w3.org/2000/svg" viewBox="0 0 77 76" width="77" height="76">
	<title>Products</title>
	<style>
		.s0 { fill: #ffffff } 
	</style>
	<g id="Products">
		<path id="-e-icon-nater" fill-rule="evenodd" class="s0" d="m10.5 17.7v-11.8c0-3.2 2.6-5.9 5.9-5.9h44.9c3.3 0 5.9 2.7 5.9 5.9v11.8c0 3.3-2.6 5.9-5.9 5.9h-44.9c-3.3 0-5.9-2.6-5.9-5.9zm2.3 0c0 2 1.6 3.6 3.6 3.6h44.9c2 0 3.5-1.6 3.5-3.6v-11.8c0-1.9-1.5-3.5-3.5-3.5h-44.9c-2 0-3.6 1.6-3.6 3.5zm-7.1-1.2v-9.4c0-0.7 0.6-1.2 1.2-1.2 0.7 0 1.2 0.5 1.2 1.2v9.4c0 0.7-0.5 1.2-1.2 1.2-0.6 0-1.2-0.5-1.2-1.2zm26 17.8c-7.1 0-7.1 2.1-7.1 3.5v3.6c0 1.9-1.5 3.5-3.5 3.5-2 0-3.5-1.6-3.5-3.5v-4.8c0-1.3-1.1-2.3-2.4-2.3-1.3 0-2.4 1-2.4 2.3v11.9c0 3.2-2.6 5.9-5.9 5.9-3.2 0-5.9-2.7-5.9-5.9v-35.5c0-0.7 0.5-1.2 1.2-1.2 0.6 0 1.2 0.5 1.2 1.2v35.5c0 1.9 1.6 3.5 3.5 3.5 2 0 3.6-1.6 3.6-3.5v-11.9c0-2.6 2.1-4.7 4.7-4.7 2.6 0 4.7 2.1 4.7 4.7v4.8c0 0.6 0.5 1.1 1.2 1.1 0.7 0 1.2-0.5 1.2-1.1v-3.6c0-4.1 2.8-5.9 9.4-5.9 0.1 0 4.8-0.1 4.8-2.4v-2.3c0-0.7 0.5-1.2 1.2-1.2 0.6 0 1.1 0.5 1.1 1.2v2.3c0 3.8-4.4 4.8-7.1 4.8zm45-20.1v9.4c0 1.9-0.5 2.2-2.5 3.2l-0.5 0.2-31.4 13.1c-1.4 0.5-2.3 1.8-2.3 3.3v1.5h7.1c0.7 0 1.2 0.5 1.2 1.2 0 0.6-0.5 1.2-1.2 1.2h-1.2v24.8c0 2-1.6 3.5-3.5 3.5h-7.1c-2 0-3.6-1.5-3.6-3.5v-24.8h-1.1c-0.7 0-1.2-0.6-1.2-1.2 0-0.7 0.5-1.2 1.2-1.2h7.1v-1.5c0-2.5 1.4-4.6 3.7-5.5l31.8-13.3c0.4-0.2 0.9-0.4 1.1-0.5 0-0.2 0-0.3 0-0.5v-9.4c0-0.7-0.5-1.2-1.2-1.2h-1.2v3.5c0 0.7-0.5 1.2-1.1 1.2-0.7 0-1.2-0.5-1.2-1.2v-9.4c0-0.7 0.5-1.2 1.2-1.2 0.6 0 1.1 0.5 1.1 1.2v3.5h1.2c2 0 3.6 1.6 3.6 3.6zm-33.1 57.9v-24.8h-9.5v2.3h5.9c0.7 0 1.2 0.6 1.2 1.2 0 0.7-0.5 1.2-1.2 1.2h-5.9v20.1c0 0.7 0.5 1.2 1.2 1.2h7.1c0.6 0 1.2-0.5 1.2-1.2z"/>
	</g>
</svg>