<svg version="1.2" xmlns="http://www.w3.org/2000/svg" viewBox="0 0 85 93" width="85" height="93">
	<title>Products</title>
	<style>
		.s0 { fill: #ffffff } 
	</style>
	<g id="Products">
		<path id="-e-icon-ucpavky" fill-rule="evenodd" class="s0" d="m51.4 71.7c-13.9 0-25.3-11.4-25.3-25.3 0-13.9 11.4-25.2 25.3-25.2 14 0 25.4 11.3 25.4 25.2 0 13.9-11.4 25.3-25.4 25.3zm0-2.3c12.8 0 23.1-10.3 23.1-23 0-12.7-10.3-23-23.1-23-12.7 0-23 10.3-23 23 0 12.7 10.3 23 23 23zm29.8 17.1c0.2 0.2 0.2 0.5 0.2 0.8-0.1 0.3-0.3 0.6-0.6 0.7l-7.9 4.6q-0.3 0.1-0.5 0.1c-0.4 0-0.8-0.2-1-0.6l-8.8-15.1c-3.5 1.3-7.2 1.9-11.2 1.9-16 0-29.3-11.5-32.1-26.7h-17.7q0 0 0 0c-0.6 0-1.1-0.5-1.1-1.1l-0.1-9.1c0-0.6 0.5-1.1 1.2-1.1h17.7c2.6-15.3 16-27 32.1-27 4 0 7.8 0.7 11.3 2l8.8-15.2c0.2-0.3 0.4-0.5 0.7-0.5 0.3-0.1 0.6-0.1 0.9 0.1l7.9 4.5c0.5 0.3 0.7 1 0.4 1.6l-8.9 15.2c7.1 6 11.6 14.9 11.6 24.8 0 10-4.5 18.9-11.6 24.9zm-15.3-69.1q1.8 0.8 3.4 1.9l1.4 0.8 8.1-13.9-6-3.4-8 13.9zm-47.3 30.4q0-0.7 0-1.3 0-0.6 0-1.1v-2.2h-16.1v6.8h16.1zm32.7 29c4.4 0 8.6-1 12.5-2.7l5.2-3c7.7-5.5 12.7-14.5 12.7-24.6 0-10.5-5.4-19.8-13.6-25.2l-3.3-1.9c-4.1-2-8.7-3.2-13.5-3.2-16.4 0-29.8 13-30.4 29.2v2.4c0.7 16.1 14.1 29 30.4 29zm27.2 9.9l-8-13.9-0.3 0.2q-2.6 1.8-5.4 3.1l-0.2 0.1 8 13.9zm-6.6-77.8c-0.7-1.1-0.3-2.5 0.8-3.1 1.1-0.7 2.5-0.3 3.1 0.8 0.7 1.1 0.3 2.5-0.8 3.1-1.1 0.6-2.5 0.3-3.1-0.8zm-0.2 77.5c-0.6-1-0.2-2.4 0.9-3.1 1.1-0.6 2.5-0.2 3.1 0.9 0.6 1.1 0.3 2.5-0.8 3.1-1.1 0.6-2.5 0.2-3.2-0.9zm-63.7-40.9c0.6 1.1 0.2 2.5-0.9 3.1-1.1 0.6-2.5 0.3-3.1-0.8-0.6-1.1-0.3-2.5 0.8-3.1 1.1-0.7 2.5-0.3 3.2 0.8z"/>
	</g>
</svg>