<svg xmlns="http://www.w3.org/2000/svg" width="88.219" height="75.688" viewBox="0 0 88.219 75.688">
  <defs>
    <style>
      .cls-1 {
        fill: #fff;
        fill-rule: evenodd;
      }
    </style>
  </defs>
  <path id="Shape_385.svg" data-name="Shape 385.svg" class="cls-1" d="M884.38,774.886l-31.5-25.388a1.03,1.03,0,0,0-.974-0.174l-48.8,16.441a1.042,1.042,0,0,0-.332,1.787l11.033,9.189L799.381,781.6a1.042,1.042,0,0,0-.332,1.787l11.239,9.36-13.082,4.573a1.041,1.041,0,0,0-.32,1.783l30.773,25.629a1.028,1.028,0,0,0,.988.185l49.525-16.683a1.043,1.043,0,0,0,.326-1.792l-11.486-9.436,13.323-4.488a1.043,1.043,0,0,0,.32-1.8l-11.26-9.1,14.666-4.94A1.043,1.043,0,0,0,884.38,774.886Zm-8.642,31.976-47.2,15.9L799.619,798.68l12.531-4.38,17.672,14.718a1.028,1.028,0,0,0,.988.185l33.883-11.414Zm2.146-15.71L830.7,807.047,801.8,782.98l13.712-4.62a1.031,1.031,0,0,0,.141-0.081l17.893,14.9a1.026,1.026,0,0,0,.988.186l32.529-10.958Zm-43.459.058-28.9-24.067,46.505-15.666,29.574,23.839Z" transform="translate(-796.531 -749.281)"/>
</svg>
