<svg xmlns="http://www.w3.org/2000/svg" width="77.688" height="75.531" viewBox="0 0 77.688 75.531">
  <defs>
    <style>
      .cls-1 {
        fill: #fff;
        fill-rule: evenodd;
      }
    </style>
  </defs>
  <path id="Shape_381.svg" data-name="Shape 381.svg" class="cls-1" d="M763.354,1033.09a1.121,1.121,0,0,0-1.589,0l-9.164,9.14v-35.67l10.093-10.076a1.123,1.123,0,0,0-1.589-1.586l-8.5,8.492V988.079a1.124,1.124,0,0,0-2.248,0v17.551l-4.023,4.01V988.079a1.124,1.124,0,0,0-2.247,0v23.811l-9.558,9.53h-44.7l25.651-25.6a1.122,1.122,0,0,0-1.588-1.585l-10.414,10.391V988.079a1.124,1.124,0,0,0-2.247,0v18.791l-4.024,4.02V988.079a1.124,1.124,0,0,0-2.247,0v24.761a1.021,1.021,0,0,0,.048.24l-8.684,8.67a1.151,1.151,0,0,0-.33.79v38.85a1.129,1.129,0,0,0,1.123,1.13H734.99a1.073,1.073,0,0,0,.43-0.09,1.248,1.248,0,0,0,.366-0.24l16.483-16.45s0-.01,0-0.01l11.081-11.06A1.112,1.112,0,0,0,763.354,1033.09Zm-13-24.29v35.68l-4.023,4.01v-35.68Zm-6.25,41.91-7.989,7.98v-35.68l7.969-7.95v35.55A0.7,0.7,0,0,0,744.1,1050.71Zm-55.871-27.04h45.635v36.6H688.232v-36.6Z" transform="translate(-686 -986.969)"/>
</svg>
