<svg xmlns="http://www.w3.org/2000/svg" width="75.594" height="75.5" viewBox="0 0 75.594 75.5">
  <defs>
    <style>
      .cls-1 {
        fill: #fff;
        fill-rule: evenodd;
      }
    </style>
  </defs>
  <path id="Shape_386.svg" data-name="Shape 386.svg" class="cls-1" d="M639.4,828.213H565.948a1.071,1.071,0,0,1-1.071-1.07V753.78a1.071,1.071,0,0,1,1.071-1.07H639.4a1.07,1.07,0,0,1,1.071,1.07v73.363A1.07,1.07,0,0,1,639.4,828.213Zm-72.379-2.14h71.307V754.85H567.02v71.223Zm61.532-3.19H576.795a6.586,6.586,0,0,1-6.582-6.574V764.614a6.586,6.586,0,0,1,6.582-6.575h51.757a6.587,6.587,0,0,1,6.583,6.575v51.695A6.586,6.586,0,0,1,628.552,822.883Zm-51.757-62.7a4.442,4.442,0,0,0-4.44,4.435v51.695a4.442,4.442,0,0,0,4.44,4.434h51.757a4.442,4.442,0,0,0,4.441-4.434V764.614a4.443,4.443,0,0,0-4.441-4.435H576.795Zm48.777,26.056a4.227,4.227,0,1,1-4.232,4.227,4.229,4.229,0,0,1,4.232-4.227m0-2.14a6.367,6.367,0,1,0,6.374,6.367,6.378,6.378,0,0,0-6.374-6.367h0Zm0,9.4a1.071,1.071,0,0,1-1.072-1.07V788.5a1.072,1.072,0,0,1,2.143,0v3.925A1.07,1.07,0,0,1,625.573,793.494Z" transform="translate(-564.875 -752.719)"/>
</svg>
