<svg xmlns="http://www.w3.org/2000/svg" width="95.62" height="82.75" viewBox="0 0 95.62 82.75">
  <defs>
    <style>
      .cls-1 {
        fill: #fff;
        fill-rule: evenodd;
      }
    </style>
  </defs>
  <path id="Shape_388.svg" data-name="Shape 388.svg" class="cls-1" d="M1198.93,1015.75h-6.25l-1.89-1.69s-5.42-6.32-16.59-6.32h-0.19c-11.3.07-17.9,8.57-18.32,18.26s9.83,14.96,9.83,14.96V1066a4.737,4.737,0,0,0,4.74,4.74h0.07a4.735,4.735,0,0,0,4.73-4.74v-25.04l1.69-.01V1066a4.735,4.735,0,1,0,9.47,0v-40.7h12.71A4.775,4.775,0,0,0,1198.93,1015.75Zm0,7.13h-15.12V1066a2.32,2.32,0,0,1-4.64,0v-27.49l-2.44.02-1.68.01-2.4.02V1066a2.322,2.322,0,0,1-2.32,2.32h-0.07a2.322,2.322,0,0,1-2.32-2.32v-25.04l-0.01-1.47-1.3-.68c-0.09-.04-8.87-4.71-8.52-12.7a17.463,17.463,0,0,1,4.43-11.2,15.372,15.372,0,0,1,11.49-4.75h0.17a22.448,22.448,0,0,1,11.09,2.73,14.735,14.735,0,0,1,3.66,2.75l0.11,0.12,0.12,0.11,1.89,1.68,0.69,0.62h7.17A2.355,2.355,0,0,1,1198.93,1022.88Zm-23.99-17.99a8.442,8.442,0,0,0,8.44-8.444,7.82,7.82,0,0,0-.16-1.614h4.04a1.21,1.21,0,1,0,0-2.419h-4.9A8.443,8.443,0,1,0,1174.94,1004.89Zm0-14.472a6.029,6.029,0,0,1,4.47,2h-8.93A5.991,5.991,0,0,1,1174.94,990.418Zm-5.8,4.414h11.6a6.133,6.133,0,0,1,.23,1.614,6.025,6.025,0,0,1-12.05,0A6.129,6.129,0,0,1,1169.14,994.832Zm43.63,24.548h-3.62a1.21,1.21,0,0,0,0,2.42h3.62A1.21,1.21,0,1,0,1212.77,1019.38Zm26.96,0h-6.74a1.21,1.21,0,0,0,0,2.42h6.74A1.21,1.21,0,1,0,1239.73,1019.38Zm-13.48,0h-6.74a1.21,1.21,0,0,0,0,2.42h6.74A1.21,1.21,0,1,0,1226.25,1019.38Zm23.84,0h-3.62a1.21,1.21,0,0,0,0,2.42h3.62A1.21,1.21,0,1,0,1250.09,1019.38Zm-40.94-1.77a1.189,1.189,0,0,0,.51-0.12l3.29-1.53a1.21,1.21,0,0,0-1.03-2.19l-3.28,1.53A1.211,1.211,0,0,0,1209.15,1017.61Zm21.61-10.09a1.174,1.174,0,0,0,.51-0.11l6.1-2.85a1.208,1.208,0,1,0-1.02-2.19l-6.11,2.85a1.215,1.215,0,0,0-.58,1.61A1.2,1.2,0,0,0,1230.76,1007.52Zm-12.22,5.7a1.145,1.145,0,0,0,.51-0.11l6.11-2.85a1.208,1.208,0,0,0-1.02-2.19l-6.11,2.85a1.206,1.206,0,0,0-.58,1.61A1.192,1.192,0,0,0,1218.54,1013.22Zm24.43-11.39a1.189,1.189,0,0,0,.51-0.12l3.28-1.53a1.209,1.209,0,1,0-1.02-2.193l-3.28,1.533A1.211,1.211,0,0,0,1242.97,1001.83Zm-30.02,23.39-3.29-1.53a1.208,1.208,0,1,0-1.02,2.19l3.29,1.53a1.145,1.145,0,0,0,.51.11A1.208,1.208,0,0,0,1212.95,1025.22Zm12.22,5.68-6.11-2.84a1.208,1.208,0,1,0-1.02,2.19l6.11,2.84a1.145,1.145,0,0,0,.51.11,1.185,1.185,0,0,0,1.09-.7A1.2,1.2,0,0,0,1225.17,1030.9Zm12.22,5.68-6.11-2.84a1.208,1.208,0,1,0-1.02,2.19l6.11,2.84a1.189,1.189,0,0,0,.51.12A1.211,1.211,0,0,0,1237.39,1036.58Zm9.4,4.37-3.29-1.53a1.208,1.208,0,0,0-1.02,2.19l3.29,1.53a1.156,1.156,0,0,0,.51.12A1.213,1.213,0,0,0,1246.79,1040.95Z" transform="translate(-1155.69 -988)"/>
</svg>
