<svg xmlns="http://www.w3.org/2000/svg" width="74.59" height="74.594" viewBox="0 0 74.59 74.594">
  <defs>
    <style>
      .cls-1 {
        fill: #fff;
        fill-rule: evenodd;
      }
    </style>
  </defs>
  <path id="Shape_384.svg" data-name="Shape 384.svg" class="cls-1" d="M1107.91,811.4a4.828,4.828,0,0,0-5.66-1.094l-3.8-4.619,8.84-7.283a4.657,4.657,0,0,0-1.31-7.956l-23.79-9.027a4.662,4.662,0,0,0-6.25,5.147l4.3,25.074a4.637,4.637,0,0,0,2.97,3.581,4.744,4.744,0,0,0,1.64.3,4.613,4.613,0,0,0,2.95-1.07l8.85-7.283,3.8,4.619a4.827,4.827,0,0,0-.01,5.758l9.06,12.193a5.6,5.6,0,1,0,8.64-7.111Zm-21.59,1.253a2.334,2.334,0,0,1-3.78-1.4l-4.3-25.074a2.336,2.336,0,0,1,3.13-2.573l23.79,9.026a2.33,2.33,0,0,1,.65,3.978l-8.84,7.283-2.97-3.6a1.166,1.166,0,0,0-1.8,1.482l2.97,3.6Zm29.75,16.269a3.271,3.271,0,0,1-4.7-.573l-9.06-12.193a2.512,2.512,0,0,1,.42-3.428l0.01,0a2.5,2.5,0,0,1,3.44.246l10.24,11.228a3.283,3.283,0,0,1,.84,2.431A3.249,3.249,0,0,1,1116.07,828.924Zm2.36-57.525h-10.49v-12.82a1.163,1.163,0,0,0-1.16-1.165h-48.96a1.172,1.172,0,0,0-1.17,1.165V771.4h-5.82a1.165,1.165,0,1,0,0,2.33h18.65v11.654h-18.65a1.166,1.166,0,1,0,0,2.331h5.82v11.654h-5.82a1.166,1.166,0,1,0,0,2.331h18.65v11.654h-18.65a1.165,1.165,0,1,0,0,2.33h5.82v10.489a1.165,1.165,0,1,0,2.33,0V815.683h17.49a1.165,1.165,0,1,0,0-2.33h-4.66V801.7h2.33a1.166,1.166,0,0,0,0-2.331h-15.16V787.714h11.66a1.165,1.165,0,0,0,1.17-1.165v-12.82h20.98v3.5a1.165,1.165,0,1,0,2.33,0v-3.5h22.15v11.654h-5.83a1.166,1.166,0,1,0,0,2.331h6.99a1.165,1.165,0,0,0,1.17-1.165V772.564A1.165,1.165,0,0,0,1118.43,771.4Zm-59.45,0V759.745h22.15V771.4h-22.15Zm24.48-11.654h22.15V771.4h-22.15V759.745Zm20.99,69.923h-57.12v-57.1a1.165,1.165,0,1,0-2.33,0v58.27a1.163,1.163,0,0,0,1.16,1.165h58.29A1.166,1.166,0,0,0,1104.45,829.668Z" transform="translate(-1045 -757.406)"/>
</svg>
