<svg xmlns="http://www.w3.org/2000/svg" width="75.69" height="75.688" viewBox="0 0 75.69 75.688">
  <defs>
    <style>
      .cls-1 {
        fill: #fff;
        fill-rule: evenodd;
      }
    </style>
  </defs>
  <path id="Shape_383.svg" data-name="Shape 383.svg" class="cls-1" d="M1299.37,781.648h44.93a5.917,5.917,0,0,0,5.91-5.912V763.912A5.917,5.917,0,0,0,1344.3,758h-44.93a5.917,5.917,0,0,0-5.91,5.912v11.824A5.917,5.917,0,0,0,1299.37,781.648Zm-3.55-17.736a3.557,3.557,0,0,1,3.55-3.547h44.93a3.551,3.551,0,0,1,3.55,3.547v11.824a3.551,3.551,0,0,1-3.55,3.547h-44.93a3.557,3.557,0,0,1-3.55-3.547V763.912Zm-5.91,11.824a1.183,1.183,0,0,0,1.18-1.182V765.1a1.18,1.18,0,1,0-2.36,0v9.459A1.183,1.183,0,0,0,1289.91,775.736Zm31.93,11.824V785.2a1.185,1.185,0,0,0-2.37,0v2.365c0,2.286-4.68,2.365-4.73,2.365-6.63,0-9.46,1.768-9.46,5.912v3.547a1.18,1.18,0,1,1-2.36,0v-4.729a4.73,4.73,0,0,0-9.46,0v11.824a3.55,3.55,0,0,1-7.1,0V771.007a1.18,1.18,0,1,0-2.36,0v35.472a5.91,5.91,0,1,0,11.82,0V794.655a2.365,2.365,0,1,1,4.73,0v4.729a3.55,3.55,0,0,0,7.1,0v-3.547c0-1.413,0-3.547,7.09-3.547C1317.38,792.29,1321.84,791.294,1321.84,787.56Zm34.29-18.918h-1.19V765.1a1.18,1.18,0,1,0-2.36,0v9.459a1.18,1.18,0,1,0,2.36,0v-3.547h1.19a1.183,1.183,0,0,1,1.18,1.182v9.459c0,0.152,0,.32-0.01.43-0.2.13-.65,0.358-1.14,0.6l-31.79,13.241a5.882,5.882,0,0,0-3.72,5.488v1.528h-7.09a1.183,1.183,0,0,0,0,2.365h1.18v24.831a3.551,3.551,0,0,0,3.55,3.547h7.09a3.551,3.551,0,0,0,3.55-3.547V805.3h1.18a1.183,1.183,0,1,0,0-2.365h-7.09V801.4a3.529,3.529,0,0,1,2.24-3.3l31.4-13.034,0.55-.277c1.99-.986,2.46-1.29,2.46-3.146v-9.459A3.549,3.549,0,0,0,1356.13,768.642Zm-30.75,62.667h-7.09a1.183,1.183,0,0,1-1.18-1.182v-20.1h5.91a1.183,1.183,0,0,0,0-2.365h-5.91V805.3h9.46v24.831A1.185,1.185,0,0,1,1325.38,831.309Z" transform="translate(-1284 -758)"/>
</svg>
