<svg xmlns="http://www.w3.org/2000/svg" width="48.28" height="85.906" viewBox="0 0 48.28 85.906">
  <defs>
    <style>
      .cls-1 {
        fill: #fff;
        fill-rule: evenodd;
      }
    </style>
  </defs>
  <path id="Shape_382.svg" data-name="Shape 382.svg" class="cls-1" d="M1581.26,755a1.043,1.043,0,0,0-.2.02l-12.42,2.381a2.041,2.041,0,0,0-1.91,1.894h-16.32a1.063,1.063,0,0,0-.63.2l-14.31,10.3a1.074,1.074,0,0,0,.19,1.851l2.85,1.278a1.057,1.057,0,0,0,.44.1,1.075,1.075,0,0,0,.55-0.151l11.2-6.633h2.96v4.984a16.222,16.222,0,0,0-11.69,15.656v47.675c0,3.739,2.79,6.351,6.79,6.351h21.57c3.99,0,6.78-2.612,6.78-6.351V786.879a16.214,16.214,0,0,0-11.68-15.657v-4.983h2.01a2.022,2.022,0,0,0,1.2.5l12.42,2.381a0.969,0.969,0,0,0,.2.02,2.036,2.036,0,0,0,2.04-2.033V757.034A2.036,2.036,0,0,0,1581.26,755Zm-30.85,9.089a1.042,1.042,0,0,0-.55.151l-10.98,6.5-0.64-.286,12.51-9.008h15.97v2.644h-16.31Zm24.54,22.79v47.675c0,2.552-1.81,4.2-4.62,4.2h-21.57c-2.81,0-4.63-1.649-4.63-4.2V786.879c0-8.214,6.63-14.407,15.41-14.407S1574.95,778.665,1574.95,786.879Zm-11.68-16.21a20.192,20.192,0,0,0-7.46,0v-4.431h7.46v4.43Zm17.88-3.726-12.19-2.335a0.477,0.477,0,0,0-.08-0.013v-5.054a0.608,0.608,0,0,0,.08-0.013l12.19-2.336v9.751ZM1569.12,832.5a1.081,1.081,0,0,0,1.08-1.075V788.062a1.08,1.08,0,0,0-2.16,0V831.42A1.075,1.075,0,0,0,1569.12,832.5Z" transform="translate(-1535.03 -755)"/>
</svg>
