<svg xmlns="http://www.w3.org/2000/svg" width="64.688" height="71.566" viewBox="0 0 64.688 71.566">
  <defs>
    <style>
      .cls-1 {
        fill: #fff;
        fill-rule: evenodd;
      }
    </style>
  </defs>
  <path id="Shape_380.svg" data-name="Shape 380.svg" class="cls-1" d="M945.033,997.016h10.039a1.115,1.115,0,1,0,0-2.229H945.033A1.115,1.115,0,1,0,945.033,997.016Zm39.017,42.354v8.57H937.224V980.846h30.708v15.047a1.121,1.121,0,0,0,1.125,1.123H984.05v3.044a3.381,3.381,0,0,1,2.229,0v-4.167a1.1,1.1,0,0,0-.325-0.776L969.84,978.938a0.988,0.988,0,0,0-.359-0.239,1.116,1.116,0,0,0-.424-0.091H936.111A1.115,1.115,0,0,0,935,979.723v69.327a1.113,1.113,0,0,0,1.116,1.12h49.056a1.115,1.115,0,0,0,1.112-1.12v-9.68l-1.112-.28Zm-13.881-56.938,12.3,12.355h-12.3V982.432Zm4.247,23.408,0.7-1.51H945.033a1.115,1.115,0,1,0,0,2.23h27.809Zm-5.347,8.85,0.21-.3H945.033a1.115,1.115,0,1,0,0,2.23h23.422A3.357,3.357,0,0,1,969.069,1014.69Zm30.416,1.29-1.9-2.69,0.306-3.27a1.148,1.148,0,0,0-.647-1.13l-2.991-1.37-1.376-2.98a1.1,1.1,0,0,0-1.112-.65l-3.271.3-2.686-1.9a1.114,1.114,0,0,0-1.281,0l-2.686,1.9-3.253-.3a1.126,1.126,0,0,0-1.109.64l-1.372,2.99-2.986,1.37a1.166,1.166,0,0,0-.638,1.13l0.3,3.27-1.882,2.69a1.122,1.122,0,0,0,0,1.29l1.882,2.69-0.3,3.27a1.139,1.139,0,0,0,.638,1.13l2.986,1.38,0.248,0.55c-0.021.09-.066,0.19-0.082,0.29l-1.116,11.19a1.081,1.081,0,0,0,.378.94,1.125,1.125,0,0,0,1,.25l8.638-2.18,8.654,2.18a1.268,1.268,0,0,0,.273.03,1.051,1.051,0,0,0,.724-0.28,1.1,1.1,0,0,0,.383-0.94l-1.12-11.19a1.192,1.192,0,0,0-.09-0.29l0.259-.55,2.991-1.38a1.14,1.14,0,0,0,.647-1.13l-0.306-3.27,1.9-2.69A1.164,1.164,0,0,0,999.485,1015.98Zm-14.054,18.56a1.607,1.607,0,0,0-.536,0l-7.365,1.85,0.7-7.11a1.41,1.41,0,0,0,.363.09l3.241-.31,2.686,1.9a1.126,1.126,0,0,0,1.281,0l2.686-1.9,3.271,0.31a1.335,1.335,0,0,0,.346-0.09l0.717,7.11Zm10.149-11.89-2.636,1.22a1.145,1.145,0,0,0-.539.56l-1.223,2.63-2.888-.26a1.1,1.1,0,0,0-.75.2l-2.377,1.68L982.79,1027a1.088,1.088,0,0,0-.642-0.21,0.388,0.388,0,0,0-.107.01l-2.872.26-1.215-2.63a1.2,1.2,0,0,0-.548-0.56l-2.636-1.22,0.272-2.89a1.2,1.2,0,0,0-.2-0.76l-1.681-2.38,1.681-2.38a1.129,1.129,0,0,0,.2-0.74l-0.272-2.91,2.636-1.21a1.174,1.174,0,0,0,.548-0.55l1.215-2.64,2.884,0.26a1.143,1.143,0,0,0,.737-0.2l2.377-1.67,2.377,1.67a1.117,1.117,0,0,0,.741.2l2.9-.26,1.223,2.64a1.142,1.142,0,0,0,.539.55l2.636,1.21-0.271,2.91a1.176,1.176,0,0,0,.2.74l1.689,2.38L995.51,1019a1.252,1.252,0,0,0-.2.76Zm-10.413-13.86a7.83,7.83,0,1,0,7.807,7.83A7.818,7.818,0,0,0,985.167,1008.79Zm0,13.42a5.59,5.59,0,1,1,5.573-5.59A5.583,5.583,0,0,1,985.167,1022.21Z" transform="translate(-935 -978.594)"/>
</svg>
