<svg xmlns="http://www.w3.org/2000/svg" width="83.687" height="92.594" viewBox="0 0 83.687 92.594">
  <defs>
    <style>
      .cls-1 {
        fill: #fff;
        fill-rule: evenodd;
      }
    </style>
  </defs>
  <path id="Shape_387.svg" data-name="Shape 387.svg" class="cls-1" d="M389.8,789.421a25.355,25.355,0,1,0-25.355,25.242A25.326,25.326,0,0,0,389.8,789.421Zm-48.445,0a23.09,23.09,0,1,1,23.09,22.987A23.064,23.064,0,0,1,341.356,789.421Zm44.1,24.882a32.367,32.367,0,0,0,.084-49.69l8.851-15.261a1.125,1.125,0,0,0-.415-1.54l-7.909-4.546a1.135,1.135,0,0,0-1.548.413l-8.82,15.208a32.712,32.712,0,0,0-43.428,24.967l-17.7.046a1.129,1.129,0,0,0-1.129,1.13l0.023,9.092a1.129,1.129,0,0,0,1.132,1.124h0l17.713-.045a32.708,32.708,0,0,0,43.284,24.792l8.784,15.147a1.138,1.138,0,0,0,1.547.413l7.91-4.547a1.124,1.124,0,0,0,.415-1.54Zm-7.59-54.642,8.049-13.879,5.948,3.419-8.049,13.879-1.434-.824a32.539,32.539,0,0,0-3.332-1.916Zm-46.044,33.287-16.1.041-0.018-6.838,16.1-.041,0.006,2.251c-0.012.353-.027,0.705-0.027,1.06,0,0.439.016,0.874,0.033,1.309Zm2.259-2.22-0.006-2.37a30.407,30.407,0,0,1,43.865-26.051l3.292,1.892a30.152,30.152,0,0,1,.9,49.823l-5.194,2.985A30.406,30.406,0,0,1,334.076,790.728Zm51.693,42.308-8.049-13.878,0.259-.148a32.728,32.728,0,0,0,5.356-3.08l0.333-.191,8.049,13.878Zm2.439-80.432a2.281,2.281,0,1,0-3.127-.834A2.274,2.274,0,0,0,388.208,752.6Zm-0.127,77.582a2.281,2.281,0,1,0-3.126-.834A2.274,2.274,0,0,0,388.081,830.186Zm-70.026-42.609a2.281,2.281,0,1,0,3.126.833A2.272,2.272,0,0,0,318.055,787.577Z" transform="translate(-313.438 -743.125)"/>
</svg>
