<svg xmlns="http://www.w3.org/2000/svg" width="20" height="8" viewBox="0 0 20 8">
  <defs>
    <style>
      .cls-1 {
        fill: #fff;
        fill-rule: evenodd;
      }
    </style>
  </defs>
  <path id="Tvar_2_kopie_9_copy_5.svg" data-name="Tvar 2 kopie 9 copy 5.svg" class="cls-1" d="M471.977,1743l0.031-.03-3.518-3.7a0.9,0.9,0,0,0-1.305,0l-0.028.03a1.007,1.007,0,0,0-.271.69,0.965,0.965,0,0,0,.271.68l1.271,1.34h-15.5a0.952,0.952,0,0,0-.924.97v0.04a0.945,0.945,0,0,0,.924.97h15.5l-1.271,1.34a0.965,0.965,0,0,0-.271.68,0.989,0.989,0,0,0,.271.69l0.028,0.03a0.9,0.9,0,0,0,1.305,0l3.518-3.7Z" transform="translate(-452 -1739)"/>
</svg>
